<?xml version="1.0" encoding="utf-8"?>
<!-- Generator: Adobe Illustrator 24.1.1, SVG Export Plug-In . SVG Version: 6.00 Build 0)  -->
<svg version="1.1" id="Layer_1" xmlns="http://www.w3.org/2000/svg" xmlns:xlink="http://www.w3.org/1999/xlink" x="0px" y="0px"
	 viewBox="0 0 714 714" style="enable-background:new 0 0 714 714;" xml:space="preserve">
<style type="text/css">
	.st0{fill:#754C24;}
	.st1{fill:#A967AA;}
	.st2{fill:#F4783B;}
	.st3{fill:#E6E6E6;}
	.st4{fill:#FEE3C5;}
	.st5{fill:#CCCCCC;}
	.st6{fill:#F2F2F2;}
	.st7{fill:#FDE92B;}
	.st8{fill:#FBC9C3;}
	.st9{fill:#FFFFFF;}
	.st10{fill:#B3B3B3;}
	.st11{fill:#AEE0E8;}
	.st12{fill:#ED1C24;}
	.st13{fill:#F8D998;}
	.st14{fill:#FFE89B;}
	.st15{fill:#637E77;}
	.st16{fill:#BD8648;}
	.st17{fill:#ECC091;}
	.st18{fill:#FBCC34;}
	.st19{fill:#F9A01B;}
	.st20{fill:#C8EAF5;}
	.st21{fill:#91BE4A;}
	.st22{fill:#FFFAC0;}
	.st23{fill:#F190AC;}
	.st24{fill:#999999;}
	.st25{fill:#FFE500;}
	.st26{fill:#FFEC5F;}
	.st27{fill:#FDE7AD;}
	.st28{fill:#00A651;}
	.st29{fill:#EA7E73;}
	.st30{fill:#6DC065;}
	.st31{fill:#E44F50;}
	.st32{fill:#D51920;}
	.st33{fill:#998675;}
	.st34{fill:#C7B299;}
</style>
<g>
	<path d="M256.55,481.01c-0.83-1.97-1.59-3.7-2.29-5.47c-4.56-11.59-4.67-23.22-0.48-34.97c1.16-3.25,1.56-6.77,2.55-10.09
		c0.89-3,1.92-5.98,3.22-8.82c3.15-6.88,6.44-13.68,9.77-20.47c0.87-1.78,1.97-3.49,3.18-5.06c1.67-2.17,2.72-4.51,2.89-7.24
		c0.21-3.59,1.26-6.81,3.6-9.66c0.78-0.95,1-2.48,1.16-3.79c0.47-3.93,1.73-5.5,5.48-6.77c0.61-0.21,1.33-1.04,1.41-1.66
		c0.42-3.09,1.85-5.54,3.71-8.02c1.76-2.34,2.99-5.17,4.04-7.95c1.11-2.92,1.88-6,2.52-9.07c3.3-15.75,9.87-30.22,17.18-44.4
		c0.84-1.64,1.92-3.2,3.13-4.6c7.7-8.98,16.98-15.92,27.89-20.47c2.74-1.14,5.94-1.51,8.94-1.6c7.25-0.21,14.26-1.63,21.86-3.18
		c-1.21-1.13-1.97-2.09-2.94-2.7c-2.22-1.4-4.51-2.68-6.82-3.9c-2.44-1.29-3.71-3.47-4.81-5.83c-0.32-0.68-0.59-1.38-1.28-1.92
		c0.32,1.06,0.64,2.11,0.97,3.17c-0.17,0.14-0.33,0.27-0.5,0.41c-0.62-0.44-1.36-0.78-1.85-1.34c-2.18-2.49-3.47-5.4-3.79-8.69
		c-0.28-2.87-1.24-5.3-3.35-7.42c-1.68-1.68-2.93-3.79-4.63-5.57c0.87,2.58,1.74,5.16,2.61,7.75c-0.18,0.09-0.35,0.18-0.53,0.27
		c-0.47-0.58-0.98-1.13-1.4-1.75c-3.94-5.82-5-12.39-4.66-19.21c0.13-2.64-0.72-4.53-2.93-6.29c0.16,1.67,0.31,3.12,0.45,4.58
		c-2.42-2.34-2.5-5.33-2.84-8.23c-2.68-1.1-2.91-1.7-4.86-13.07c-1.04,0.2-2.09,0.39-3.14,0.59c3.66-3.03,3.65-7.14,4.12-11.14
		c0.39-3.32,1.13-6.6,1.69-9.9c0.12-0.69,0.15-1.4,0.21-2c-1.02-0.12-2.28,0.09-2.71-0.42c-0.52-0.61-0.49-1.83-0.43-2.77
		c0.35-5.43,2.12-10.47,4.55-15.28c3.02-6.02,7.71-10.36,13.72-13.33c1.97-0.97,3.92-1.98,6.4-3.23c-2.39,0.43-4.25,0.76-6.17,1.1
		c1.88-2.88,5.57-3.59,15.59-2.9c-0.34-2.35-0.67-4.57-1.06-7.26c0.97,1.38,1.76,2.5,2.61,3.7c1.24-1.35,1.43-2.99,1.13-4.81
		c-0.6-3.6,0.9-6.44,3.41-8.95c-0.22,3.01-1.96,5.88-0.4,9.23c2.73-8.16,7.6-14.12,16.47-16.72c-2.76,2.31-5.4,4.06-7.43,6.36
		c-1.98,2.25-3.31,5.06-4.93,7.62c0.27,0.25,0.55,0.5,0.82,0.74c1.62-1.35,3.53-2.47,4.82-4.08c4.13-5.16,9.34-8.77,15.69-10.14
		c5.31-1.14,10.82-0.86,16.04,1.11c3.41,1.29,6.88,1.84,10.5,1.31c4.27-0.63,8.5-0.1,12.43,1.42c2.29,0.89,4.36,2.67,6.15,4.44
		c3.31,3.26,6.89,5.83,11.33,7.42c3.94,1.41,7.71,3.36,11.41,5.36c3.09,1.67,4.87,4.47,5.3,8.13c-2.87-2.79-5.17-6.33-9.62-7.03
		c4.49,3.58,6.44,8.61,8.15,13.78c0.26,0.8,0.7,1.6,1.25,2.23c2.92,3.39,3.94,7.45,3.86,11.74c-0.05,2.85,1.34,4.54,3.19,6.38
		c1.82,1.81,3.27,4.03,4.68,6.21c0.46,0.71,0.27,1.85,0.02,2.87c-1.39-2.21-2.79-4.42-4.18-6.63c-0.1,0.09-0.2,0.18-0.3,0.27
		c0.21,3.41,0.42,6.82,0.63,10.32c2.69,0.19,5.52,0.25,8.32,0.6c5.22,0.66,5.64,0.98,5.92,6.16c0.19,3.4,0.02,6.86-0.38,10.24
		c-0.46,3.88-2.45,6.67-6.71,7.17c-0.49,0.06-0.97,0.23-1.45,0.37c-0.2,0.06-0.39,0.17-0.7,0.31c2.61,6.94,0.61,13.93,0.24,20.92
		c-0.12,2.21-0.21,4.42-0.29,6.63c-0.26,7.13-0.54,14.26-0.73,21.4c-0.02,0.82,0.28,1.85,0.81,2.44
		c4.46,5.02,8.96,10.01,13.57,14.89c1.02,1.08,2.45,1.92,3.85,2.46c7.53,2.88,15.19,5.43,22.63,8.51c3.31,1.37,6.34,3.53,9.3,5.62
		c2.5,1.76,5.11,2.02,7.94,1.59c1.83-0.28,3.66-0.94,5.48-0.89c2.36,0.06,5.14-0.03,6.98,1.14c3.83,2.44,7.95,3.42,12.25,4.17
		c1.05,0.18,2.11,0.39,3.16,0.55c8.78,1.33,14.6,6.18,16.44,14.91c1.83,8.65,5.31,16.64,8.33,24.86
		c4.03,10.97,6.78,22.41,10.58,33.47c3.01,8.78,6.44,17.4,8.22,26.55c1.69,8.69,3.17,17.34,2.58,26.32
		c-0.31,4.74,0.95,9.61,1.72,14.39c0.13,0.78,1.26,1.65,2.12,2.03c8.3,3.74,15.87,8.48,21.89,15.43c4.67,5.39,7.43,11.6,8.27,18.71
		c1.27,10.67,1.93,21.34,0.97,32.07c-0.03,0.28,0,0.56,0,1.13c1.01,0.07,1.97,0.15,2.94,0.2c6.42,0.32,12.85,0.59,19.26,0.99
		c0.85,0.05,1.66,0.78,2.49,1.19c-0.42,0.77-0.67,1.73-1.28,2.28c-26.7,23.78-54.34,46.37-84.53,65.66
		c-11.99,7.66-24.43,14.45-37.9,19.32c-11.65,4.21-23.12,3.38-34.4-0.7c-14.83-5.37-29.54-11.07-44.18-16.93
		c-17.44-6.98-34.78-14.2-53.02-18.9c-12.16-3.13-24.46-5.34-37.07-4.4c-4.89,0.37-9.81,1.15-14.55,2.39
		c-13.62,3.55-27.52,5.17-41.48,6.23c-48.24,3.64-96.37,2.61-144.35-3.72c-23.05-3.04-45.82-7.51-67.78-15.37
		c-13.86-4.96-27.12-11.08-38.31-20.94c-9.17-8.08-15.43-17.81-16.18-30.35c-0.21-3.53,0.32-7.11,0.56-10.67
		c0.13-1.86,1.21-2.54,3.04-2.46c2.34,0.1,4.69,0.02,7.2,0.02c0-0.16,0.05-0.42-0.01-0.67c-7.29-31.15-14.61-62.29-21.86-93.45
		c-2.99-12.87-5.82-25.77-8.74-38.66c-0.24-1.04-0.59-2.06-0.86-3.09c-0.98-3.77,0.36-6.96,3.95-8.45c2-0.83,4.25-1.4,6.41-1.46
		c35.99-1.05,71.98-2.03,107.97-2.97c6.47-0.17,11.22,3.36,13.16,9.52c13.71,43.44,27.43,86.88,41.09,130.34
		c0.58,1.86,1.37,2.73,3.42,2.98c13.05,1.6,26.07,3.36,39.11,5.06C255.03,480.94,255.66,480.95,256.55,481.01z M332.54,442.76
		c-0.01-0.26-0.02-0.52-0.03-0.79c-1.64-0.23-3.29-0.68-4.92-0.63c-3.98,0.12-7.96,0.46-11.94,0.74c-2.29,0.16-4.25-0.68-5.87-2.16
		c-2.57-2.34-5.58-3.71-8.9-4.44c-2.93-0.64-5.89-1.09-8.83-1.68c-1.01-0.2-1.98-0.6-2.98-0.9c0.08-0.27,0.16-0.54,0.23-0.81
		c7.46-0.27,14.73,0.54,21.98,4.55c-3.07-6.76-6.7-12.25-13.24-15.33c5.62-1.13,15.16,8.89,16.49,17.82
		c4.05-0.3,8.15-0.59,12.25-0.95c0.37-0.03,0.85-0.48,1.01-0.85c0.4-0.95,0.66-1.97,1.01-3.09c-3.71-3.86-7.43-7.81-11.22-11.69
		c-2.69-2.75-5.45-5.43-8.21-8.11c-1.13-1.1-0.88-2.05,0.27-2.82c1.77-1.2,3.63-2.27,5.41-3.47c1.44-0.97,2.58-0.81,3.75,0.48
		c2.74,3.01,5.55,5.96,8.33,8.93c2.33,2.49,4.66,4.97,7,7.46c3.82-2.62,4.12-6.45,3.22-10.03c-1.08-4.25-3.21-8.22-4.74-12.36
		c-1.27-3.47-2.76-6.94-3.38-10.55c-1.68-9.71-2.82-19.49-2.7-29.38c0.03-2.64-0.15-5.63-2.39-7.28c-2.57-1.9-3.86-4.37-4.69-7.17
		c-1.49-4.99-2.79-10.04-4.14-15.06c-0.16-0.6-0.17-1.24-0.25-1.86c0.9,0.8,1.38,1.67,1.7,2.59c1.58,4.51,3.1,9.04,4.67,13.56
		c0.96,2.77,2.2,5.34,5.28,6.73c1.19-13.03,3.63-25.64,7.92-37.87c-1.84,11.64-3.69,23.28-5.53,34.91c0.25,0.06,0.5,0.12,0.75,0.18
		c2.39-3.58,4.77-7.15,7.16-10.73c0.16,0.07,0.33,0.13,0.49,0.2c-0.16,0.79-0.17,1.66-0.5,2.36c-1.41,2.96-2.8,5.93-4.42,8.78
		c-2.04,3.6-3.65,7.24-3.23,11.53c0.68,6.95,1.14,13.93,1.9,20.88c0.6,5.46,1.51,10.86,3.82,15.96c1.97,4.35,3.65,8.83,5.29,13.31
		c0.42,1.15,0.2,2.52,0.29,3.79c0.17,2.39,0.17,4.81,0.57,7.16c0.56,3.27,1.2,6.56,2.25,9.7c0.4,1.19,2.1,2.84,3.11,2.78
		c3.45-0.23,6.87-1.1,10.29-1.8c2.66-0.54,5.27-1.33,7.94-1.74c7.91-1.23,13.26,3.75,12.77,11.68c-0.2,3.28-0.35,6.57-0.28,9.85
		c0.08,3.5-0.63,6.62-2.79,8.5c0.48,2.88,0.87,5.24,1.23,7.41c1.59,0.24,3.32,0.5,4.56,0.68c2.19-2.23,4.14-4.36,6.25-6.33
		c5.78-5.4,12.46-9.78,17.57-15.96c1.16-1.4,3.29-2.31,5.14-2.77c5.15-1.26,10.14,0.21,15.2,1.2c14.75,2.88,29.63,4.3,44.7,3.16
		c2.34-0.18,3.78-0.93,4.9-3c2.68-4.99,7.35-6.71,12.5-4.37c2.95,1.34,5.6,3.35,8.31,5.17c6.17,4.16,12.68,6.36,20.22,4.43
		c2.22-0.57,4.84-1.16,6.9-0.53c4.53,1.4,8.8,3.65,13.23,5.39c1.92,0.75,4,1.1,5.75,1.57c0-3.45-0.03-6.4,0.01-9.36
		c0.06-3.82,0.23-7.71-3.03-10.51c-4.06-3.48-5.21-8.1-5.8-13.13c-0.5-4.24-1.41-8.43-2.27-12.61c-0.18-0.9-0.74-2-1.47-2.45
		c-2.39-1.45-3.13-3.6-2.61-6.06c1.11-5.36,2.59-10.65,3.68-16.02c0.46-2.25,0.7-4.68,0.38-6.93c-0.6-4.23-1.48-8.29-0.54-12.68
		c2.89-13.55,8.9-25.4,18.35-35.5c0.82-0.88,1.87-1.55,3.24-2.66c-0.19,0.87-0.17,1.1-0.28,1.25c-0.72,0.98-1.43,1.96-2.2,2.9
		c-7.81,9.62-13.6,20.24-16.2,32.46c-0.84,3.97-1.71,7.92,0.21,12.17c2.88-6.57,5.24-13.17,9.68-18.68
		c-0.01,0.97-0.26,1.84-0.56,2.68c-3.13,8.73-6.4,17.41-9.36,26.19c-1.68,4.98-3.48,10.02-3.24,15.42c0.04,0.82,0.38,1.98,0.98,2.36
		c2.08,1.32,2.9,3.25,3.33,5.49c0.26,1.32,0.56,2.62,0.84,3.94c2.24-6.23,3.66-12.68,7.46-18.17c0.15,0.7,0.02,1.3-0.12,1.91
		c-1.78,7.49-3.7,14.95-5.3,22.48c-1.04,4.93-0.18,9.45,3.9,13.06c2.15,1.9,3.84,4.35,3.91,7.39c0.06,2.7-0.26,5.4-0.28,8.11
		c-0.02,2.08,0.15,4.16,0.24,6.47c1.81-0.31,3.06-0.64,4.32-0.71c1.26-0.07,2.6-0.13,3.78,0.22c4.61,1.37,5.48,1.17,8.35-2.62
		c0.34-0.45,0.67-0.93,0.93-1.44c1.36-2.56,3.51-4.15,6.27-4.79c3.19-0.75,6.41-1.4,9.65-1.9c1.6-0.24,3.26-0.04,4.89-0.04
		c0.01,0.22,0.02,0.44,0.03,0.66c-1.65,0.23-3.29,0.49-4.94,0.7c-7.48,0.97-13.57,4.01-16.61,10.98c1.47-0.32,3.32-1.2,5.05-1
		c3.16,0.37,5.88-0.54,8.23-2.27c1.83-1.34,3.59-1.56,5.62-1.23c2.18,0.35,4.39,0.63,6.53,1.15c1.85,0.45,3.8,0.92,5.42,1.88
		c4.77,2.82,8.97,6.39,12.15,10.98c1.37,1.98,2.31,4.25,3.7,6.89c-0.88-0.3-1.05-0.3-1.12-0.38c-0.69-0.91-1.36-1.83-2.06-2.74
		c-6.47-8.5-14.28-14.75-25.57-15.1c-0.62-0.02-1.35-0.05-1.86,0.23c-1.54,0.84-3.01,1.82-5.09,3.12c3.09,0.53,5.84,1.74,8.28,1.28
		c6.03-1.13,9.64,2.79,13.93,5.46c-4.84-0.72-8.8-5.73-14.48-2.68c2.6,2.63,5.51,4.95,6.89,8.48c-1.32-0.8-2.47-1.75-3.57-2.75
		c-4.94-4.52-10.71-7.58-17.06-9.53c-0.89-0.27-2.03,0.23-3.05,0.37c0.02,0.22,0.04,0.44,0.07,0.66c3.82,2.43,7.59,4.91,9.68,9.16
		c-0.4-0.03-0.74-0.16-0.97-0.39c-4.78-4.68-10.65-7.2-16.91-9.27c-3.33-1.1-6.3-1.13-9.57-0.34c-3.34,0.81-6.89,0.68-9.81-1.03
		c-3.68-2.16-7.52-3.65-11.55-4.94c-1.93-0.62-3.67-0.89-5.6-0.37c-4.32,1.18-8.68,1.67-13.12,0.69c-4.75-1.05-8.91-3.3-13.14-6.09
		c1.66,4.67,3.31,9.34,5.07,14.3c0.35,0,1.12,0.01,1.89,0c4.07-0.06,8.18-0.53,12.2-0.12c29.93,3.01,58.29,11.7,85.58,24.16
		c2.5,1.14,5.14,2.05,7.8,2.72c2.69,0.68,5.48,0.99,8.24,1.33c6.23,0.78,6.46,0.75,6.52-5.61c0.08-7.77,0.14-15.58-0.58-23.3
		c-0.65-7.07-2.06-14.11-3.66-21.04c-1.42-6.14-2.99-12.23-2.61-18.57c0.77-12.83-1.83-25.17-5.47-37.3
		c-3.55-11.82-7.67-23.46-11.44-35.21c-2.49-7.74-4.55-15.62-8.52-22.82c-1.01-1.83-1.41-4.03-1.95-6.09
		c-0.59-2.28-1.05-4.59-1.49-6.9c-1.75-9.16-7.16-14.15-16.51-15.22c-4.49-0.51-9.15-1.06-12.99-3.89c-1.78-1.31-3.67-1.87-5.82-1.6
		c-1.56,0.19-3.11,0.41-4.65,0.74c-4.89,1.04-9.25,0.38-13.2-3.06c-1.95-1.7-4.38-3.01-6.8-4c-6.74-2.73-13.59-5.21-20.4-7.77
		c-0.5-0.19-1.04-0.26-1.88-0.46c0.3,1.05,0.49,1.78,0.72,2.51c3.08,9.73,6.18,19.46,9.19,29.21c0.28,0.9-0.05,1.99-0.1,2.99
		c-1.06-0.08-2.25,0.13-3.15-0.29c-5.31-2.45-10.56-5.06-15.83-7.61c-5.45-2.63-10.9-5.26-16.52-7.98
		c-2.24,5.98-5.9,10.8-10.52,14.81c-3.55,3.08-7.52,5.67-11.14,8.67c-2.7,2.24-5.76,3.23-9.11,3c-5.25-0.36-10.62-0.49-15.69-1.72
		c-5.5-1.33-10.84-3.55-16.01-5.92c-2.3-1.05-4.29-2.81-6.96-2.88c-3.53-0.09-6.21-1.82-8.11-4.53c-1.45-2.05-3.06-2.95-5.52-2.74
		c-3.29,0.27-5.19-1.72-6.31-4.48c-0.55-1.36-0.64-2.91-0.97-4.36c-0.23-1.04-0.51-2.07-0.84-3.37c-0.71,0.58-1.15,0.78-1.34,1.12
		c-1.12,2.05-2.2,4.12-3.27,6.2c-2.17,4.22-4.73,8.05-9.75,9.19c-0.86,0.19-2.22,0.11-2.68-0.42c-0.44-0.51-0.25-1.87,0.08-2.69
		c1.81-4.6,3.09-9.28,3.79-14.22c1.01-7.12,3.81-13.55,8.8-18.92c1.57-1.7,2.85-3.67,4.65-6.03c-1.72-0.25-2.94-0.75-3.95-0.48
		c-0.77,0.21-1.29,1.38-1.98,2.19c-0.55-1.78-1.87-1.39-3.36-1.15c-6.55,1.03-13.1,2.37-19.7,2.7c-4.43,0.22-8.48,1.02-12.28,3.11
		c-3.31,1.82-6.61,3.71-9.68,5.91c-7.01,5.01-13.73,10.42-17.48,18.47c-3.74,8.02-7.6,16.02-10.62,24.32
		c-2.84,7.82-4.61,16.03-6.93,24.05c-1.36,4.68-3,9.21-6.5,12.87c-1.7,1.77-1.97,4.16-1.89,6.63c5.22,1.13,10.46,1.26,15.11,4.13
		c7.28,4.5,11.02,7.38,11.73,9.98c-0.22-0.08-0.43-0.12-0.61-0.22c-0.49-0.29-0.98-0.58-1.45-0.91c-7.1-4.87-14.34-9.33-23.26-10.13
		c-5.3-0.47-8.95-0.8-8.62,5.76c0.01,0.21-0.09,0.42-0.11,0.63c-0.35,2.64,3.83,6.24,6.17,5.05c2.84-1.45,5.22-0.69,7.72,0.58
		c3.56,1.82,7.1,3.67,10.72,5.37c5.88,2.78,10.77,6.69,14.43,12.1c0.28,0.42,0.44,0.91,0.65,1.37c-0.17,0.18-0.33,0.36-0.5,0.53
		c-7.04-9.63-18.13-12.68-28.33-18.33c0.96,2.16,1.39,3.98,2.46,5.27c1.07,1.3,2.77,2.07,4.34,3.17c-5.73-0.07-7.34-4.37-9.08-8.62
		c-4.78,2.56-7.38-0.47-9.94-3.49c-2.08,1.92-2.84,4.26-2.98,6.82c-0.22,3.99-1.55,7.49-4.16,10.56c-0.91,1.07-1.62,2.36-2.24,3.64
		c-3.39,7-6.79,13.99-10.05,21.06c-1.16,2.51-2.04,5.17-2.8,7.83c-0.83,2.93-1.01,6.08-2.11,8.88c-5.39,13.72-4.29,26.97,2.27,39.99
		c0.63,1.24,1.38,1.75,2.74,1.92c22.1,2.85,44.2,5.75,66.3,8.64c0.67,0.09,1.35,0.13,2.31,0.22c-0.33-0.47-0.45-0.73-0.65-0.9
		c-4.1-3.63-6.84-8-7.42-13.57c-0.06-0.53-0.34-1.13-0.71-1.53c-4.02-4.39-3.69-9.1-0.81-13.79c1.36-2.2,1.82-4.38,1.63-6.88
		c-0.36-4.6,2.08-7.53,5.98-9.48C329.97,443.96,331.26,443.37,332.54,442.76z M390.2,516.76c-2.37,1.88-4.37,3.26-6.11,4.91
		c-2.26,2.14-4.73,2.66-7.81,2.39c-25.33-2.22-50.68-4.29-76.02-6.4c-10.32-0.86-20.65-1.7-30.96-2.64
		c-0.82-0.08-1.58-0.87-2.37-1.33c0.51-0.68,0.98-1.4,1.53-2.05c1.81-2.13,3.65-4.23,5.22-6.05c0.07,0-0.42-0.03-0.91,0
		c-14.47,0.99-28.93,2.06-43.4,2.96c-6.18,0.38-12.49,1.2-18.57,0.45c-43.1-5.33-86.16-11.03-129.23-16.57
		c-2.89-0.37-5.58-1.4-6.78-3.9c-1.8-3.72-4.72-3.99-8.09-3.83c-0.5,0.02-1.01,0.04-1.5-0.04c-1.49-0.25-2,0.46-2.16,1.85
		c-0.54,4.8-0.47,9.55,0.69,14.26c2.57,10.42,8.99,18.19,17.19,24.66c11.49,9.06,24.72,14.76,38.47,19.35
		c25,8.34,50.83,12.65,76.93,15.53c35.43,3.9,70.97,4.85,106.57,3.44c18.07-0.71,36.1-1.93,53.92-5.24
		c6.59-1.22,13.05-3.25,19.67-4.23c15.19-2.25,30.04,0.27,44.72,4.11c18.29,4.78,35.69,12.04,53.19,19.06
		c14.11,5.66,28.34,11.02,42.54,16.42c13.91,5.29,27.49,4.24,40.97-1.93c11.08-5.07,21.69-10.91,31.88-17.52
		c28.06-18.2,53.93-39.22,79-61.28c0.35-0.31,0.65-0.67,1.31-1.36c-16.44-0.8-32.44-1.59-48.51-2.37c-0.11,0.56-0.21,0.89-0.23,1.23
		c-0.07,1.54,0.48,3.61-0.31,4.49c-0.89,0.99-2.97,0.9-4.53,1.27c-26.06,6.17-52.11,12.38-78.18,18.48
		c-4.74,1.11-9.36,2.53-14.46,2.24c-14.26-0.79-28.55-1.06-42.83-1.54c-29.41-0.99-58.83-2.01-88.24-2.95
		c-1.99-0.06-2.65-0.8-2.61-2.69C390.25,525.74,390.2,521.54,390.2,516.76z M103.97,337.29c-17.92,0.49-35.85,0.95-53.77,1.51
		c-1.89,0.06-3.84,0.48-5.61,1.14c-2.37,0.88-3.11,2.74-2.51,5.21c0.99,4.09,1.99,8.18,2.94,12.29c9,39.11,17.97,78.23,27.04,117.32
		c0.8,3.44,2.14,6.81,3.59,10.04c1.29,2.87,3.59,4.45,6.98,4.88c31.47,3.97,62.91,8.09,94.37,12.17c11.33,1.47,22.67,2.94,34,4.4
		c3.24,0.42,5-0.66,5.44-3.91c0.3-2.19,0.29-4.63-0.36-6.71c-15.93-50.75-31.97-101.46-47.99-152.18
		c-1.66-5.27-5.24-7.74-10.99-7.59C139.39,336.33,121.68,336.81,103.97,337.29z M473.87,276.61c-0.55-0.06-0.71-0.12-0.83-0.08
		c-1.15,0.39-2.29,0.81-3.44,1.2c-10.91,3.67-22.1,4.22-33.43,2.92c-7.85-0.9-15.6-2.45-22.34-6.79c-3.12-2.01-5.76-4.82-8.43-7.45
		c-0.5-0.5-0.58-2.21-0.13-2.73c0.92-1.07,1.95-0.2,2.63,0.71c4.09,5.46,9.79,8.41,16.1,10.39c8.83,2.78,17.93,3.31,27.11,3.01
		c7.36-0.23,14.36-2.02,21.23-4.61c3.81-1.44,5.78-3.98,6.5-7.95c1.61-8.91,1.66-17.89,1.75-26.88c0.04-4.06,0.46-8.11,0.66-12.17
		c0.21-4.27,0.56-8.55,0.5-12.82c-0.05-3.56-1-4.15-4.39-3.63c-0.84,0.13-1.69,0.24-2.54,0.34c-4.15,0.49-7.22-1.02-9.16-4.81
		c-1.17-2.29-2.38-4.57-3.78-6.71c-0.43-0.66-1.58-1.23-2.33-1.15c-0.58,0.06-1.29,1.13-1.51,1.88c-0.29,1-0.06,2.14-0.22,3.19
		c-0.38,2.45-0.66,4.95-1.38,7.31c-0.78,2.54-2.7,4.38-5.34,4.77c-4.71,0.69-9.47,1.32-14.22,1.4c-4.69,0.09-8.35-1.9-10.05-6.77
		c-0.96-2.75-2.47-5.3-3.66-7.98c-0.47-1.06-0.92-1.52-2.24-1.15c-7.55,2.13-15.13,4.17-22.72,6.19c-1.11,0.3-1.56,0.78-1.3,1.94
		c0.95,4.36,2.3,8.51,5.37,11.93c0.52,0.58,0.55,1.61,0.81,2.43c-0.89,0.26-1.88,0.89-2.66,0.7c-1.19-0.29-2.27-1.11-3.34-1.79
		c-0.56-0.35-1.02-0.87-1.52-1.31c-0.18,0.1-0.36,0.21-0.54,0.31c0.68,2.23,1.42,4.43,2,6.69c0.22,0.85,0.06,1.79,0.07,2.69
		c-0.92-0.16-2.13-0.02-2.71-0.55c-1.76-1.64-3.34-3.49-4.86-5.36c-3.09-3.81-7.18-5.85-11.6-6.86c-0.61,0.78-1.41,1.66-1.95,1.52
		c-1.75-0.44-3.47-1.13-5.08-1.96c-3.82-1.98-6.53-0.93-7.68,3.21c-0.91,3.26-0.57,6.47,0.52,9.67c3.15,9.33,10.72,13.99,18.9,18.02
		c0.43,0.21,0.97,0.29,1.46,0.28c3.47-0.06,7.35,0.86,8.94-4.14c0.46,0.77,0.75,1.09,0.86,1.45c0.75,2.65-0.39,4.74-3.21,5.27
		c-2.47,0.46-5.03,0.51-7.69,0.75c0.3,0.7,0.57,1.34,0.86,1.98c3.15,6.8,6.67,13.45,9.35,20.43c2.85,7.44,4.84,15.21,7.32,22.8
		c2.49,7.63,7.68,13.42,13.28,18.88c0.76,0.74,1.59,1.51,2.54,1.94c9.69,4.44,19.78,6.97,30.54,5.94c0.76-0.07,1.72-0.46,2.18-1.04
		c3.37-4.23,6.84-8.4,9.88-12.87c5.56-8.15,10.64-16.61,13.55-26.14C473.1,280.96,473.41,278.78,473.87,276.61z M380.75,520.57
		c1.5-1.19,2.77-2.36,4.2-3.29c3.57-2.33,6.33-4.95,5.32-9.82c-0.31-1.51,0.79-2.35,2.36-2.32c1.36,0.02,2.73-0.05,4.07,0.11
		c1.7,0.21,2.44-0.3,2.96-2.08c2.9-9.87,10.16-14.68,20.4-13.58c2.83,0.3,5.7,0.71,8.42,1.5c13.51,3.9,26.97,7.94,40.45,11.94
		c3.07,0.91,6.07,1.56,9.4,1.28c7.9-0.66,15.83-0.85,23.75-1.24c0.72-0.04,1.44-0.13,2.16-0.2c-0.85-0.85-1.72-1.33-2.6-1.76
		c-10.83-5.31-21.64-10.68-32.52-15.88c-2.68-1.28-5.54-2.43-8.44-2.93c-11.89-2.05-23.78-4.21-35.75-5.55
		c-7.97-0.89-16.1-0.65-24.15-0.53c-4.16,0.06-8.16,1.38-11.59,3.96c-3.67,2.77-5.58,6.52-6.23,11.01c1.68-2.85,3.99-4.85,7.29-6.33
		c-0.24,0.53-0.26,0.7-0.36,0.77c-4.53,3.08-6.67,7.44-7.04,12.83c-0.11,1.55-1.15,2.3-2.84,2.17c-4.41-0.33-8.83-0.87-13.24-0.77
		c-27.48,0.62-54.97,1.4-82.45,2.14c-0.69,0.02-1.55,0.1-2.01,0.51c-2.49,2.21-4.88,4.54-7.54,7.04c0.76,0.17,1.15,0.3,1.55,0.33
		c14.39,0.97,28.77,2.26,43.18,2.79c12.76,0.47,25.56,0.09,38.34,0.12C366.24,512.84,374.21,514.28,380.75,520.57z M592.71,490.84
		c-0.01-0.14-0.02-0.29-0.04-0.43c-0.64-0.3-1.27-0.62-1.91-0.91c-14.12-6.27-28.64-11.45-43.62-15.26
		c-16.85-4.28-33.78-7.74-51.4-6.49c-24.86,1.76-49.75,3.05-74.63,4.56c-1.24,0.08-2.46,0.34-3.7,0.51
		c11.55,1.46,23.03,2.93,34.44,4.78c6.17,1,12.4,1.92,18.15,4.79c13.16,6.57,26.38,13.01,39.63,19.41c1.25,0.6,2.89,0.86,4.26,0.66
		c19.87-2.85,39.72-5.81,59.57-8.75C579.87,492.76,586.29,491.8,592.71,490.84z M393.18,529.7c44.32,1.51,88.39,3.01,132.65,4.51
		c-0.48-7.9-0.95-15.43-1.42-23.17c-43.88-1-87.53-2-131.23-2.99C393.18,515.41,393.18,522.39,393.18,529.7z M528.72,534.14
		c1.04-0.21,1.73-0.33,2.42-0.49c18.96-4.49,37.91-8.98,56.87-13.47c9.44-2.24,18.89-4.45,28.32-6.74c0.76-0.19,1.99-0.87,2-1.36
		c0.15-4.69,0.09-9.38,0.09-14.37c-30.53,4.41-60.77,8.79-91.11,13.17C527.79,518.79,528.25,526.33,528.72,534.14z M457.78,168.07
		c-1.75,1.51-3.48,2.98-5.19,4.48c-0.42,0.37-0.69,0.9-1.1,1.27c-0.78,0.71-1.62,1.36-2.43,2.03c-0.56-0.91-1.17-1.79-1.66-2.74
		c-0.63-1.23-1.15-2.52-1.72-3.79c-0.15,0.09-0.31,0.18-0.46,0.27c-0.29,1.84-0.59,3.68-0.88,5.52c-0.27,0.14-0.53,0.28-0.8,0.42
		c-2.08-5.32-6.19-8-10.78-9.15c-1.09,3.44-2.22,7.01-3.35,10.59c-0.27-0.03-0.54-0.06-0.82-0.09c-0.89-3.42-1.77-6.83-2.72-10.47
		c-1.45,3.39-2.7,6.31-4.11,9.6c-2.54-3.11-2.4-7-5.34-9.36c0,2.35-0.29,4.4,0.08,6.31c0.36,1.91,1.38,3.69,2.35,6.11
		c-5.53-2.19-8.74-6.13-11.53-11.16c-0.17,4.16,2.24,6.43,4.29,8.92c-3.49-0.29-5.59-2.69-7.96-4.78
		c-1.76,5.94-2.77,11.75-1.15,17.91c-1.53-0.08-2.63-0.13-3.85-0.19c-0.51,4.47-3.83,8.47-2.17,13.51
		c6.24-1.7,12.46-3.26,18.59-5.12c4-1.21,7.96-2.66,11.77-4.36c8.33-3.7,16.95-5.25,25.87-3.32c3.19,0.69,6.25,0.28,9-0.5
		c4.02-1.14,7.7-3.48,11.77-5.42c-2.65-5.21-5.36-10.51-8.23-16.16c-2.41,1.57-4.5,2.93-6.78,4.41
		C458.26,171.27,457.99,169.49,457.78,168.07z M337.54,443.45c-2.42,1.26-4.68,2.49-6.98,3.62c-4.03,1.98-5.07,4.02-4.94,8.52
		c0.05,1.82-0.64,3.69-1.17,5.48c-0.32,1.08-0.96,2.06-1.49,3.08c-1.52,2.92-1.13,5.53,0.86,8.17c0.98,1.3,1.41,3.05,2.01,4.62
		c0.4,1.06,0.6,2.2,1,3.26c1.69,4.42,5.16,7.22,8.81,9.94c1.67,1.24,3.29,2.76,4.44,4.48c1.71,2.55,3.29,3.24,6.3,1.98
		c-0.53-0.49-1.07-0.99-1.6-1.48c0.01-0.2,0.01-0.39,0.02-0.59c4.13,1.36,6.98-1.28,10.23-2.74c1.94-0.87,3.97-1.64,6.03-2.11
		c4.94-1.12,9.68-2.61,14.37-4.66c3.73-1.64,4.99-3.58,4.5-7.42c-0.33-2.58-1.05-3.45-3.94-3.12c0.16,0.41,0.4,0.78,0.43,1.17
		c0.07,0.79,0.03,1.58,0.04,2.38c-0.79-0.01-1.64,0.14-2.37-0.08c-0.93-0.27-1.78-0.84-2.76-1.33c-2.19,3.45-5.61,4.76-9.19,5.52
		c-6.49,1.37-13,2.64-19.55,3.69c-5.73,0.92-8.96-0.82-12.27-6.25c1.8,0.93,3.32,1.89,4.96,2.51c1.68,0.63,3.6,1.54,5.22,1.25
		c8.06-1.44,16.08-3.16,24.06-4.99c1.53-0.35,2.84-1.64,4.56-2.68c-4.85-2.93-9.55-4.18-14.64-4.21
		c-5.71-0.03-11.42-0.04-17.12-0.38c-3.9-0.23-7.8-5.18-7.65-9.42c0.49,0.67,0.89,1.15,1.21,1.66c2.25,3.61,5.25,5.12,9.74,5.26
		c7.39,0.23,14.87-0.95,22.19,0.98c0.4,0.11,0.95,0.21,1.26,0.02c1.28-0.78,2.93-1.41,3.64-2.59c0.88-1.47-0.34-3-1.65-3.74
		c-1.96-1.12-4.06-2.14-6.22-2.73c-3.5-0.95-7.12-1.5-10.68-2.26c-2.04-0.43-4.21-1.2-4.41-3.47
		C344.34,449.68,340.9,446.72,337.54,443.45z M493.1,464.66c-0.39-0.72-0.6-1.55-1.13-1.98c-2.59-2.1-5.09-4.38-7.94-6.06
		c-5.39-3.17-11.37-2.59-17.32-2.18c-15.36,1.07-30.47-0.68-45.43-4.2c-3.3-0.78-6.73-1.13-10.13-1.32
		c-2.93-0.17-5.3,1.08-7.02,3.71c-1.23,1.89-2.78,3.63-4.45,5.16c-4,3.66-8.05,7.28-12.27,10.69c-3.61,2.91-4.63,6.7-4.52,11.02
		c0.01,0.59,0.42,1.17,0.66,1.8c1.83-1.52,3.4-2.86,5-4.15c2.14-1.73,4.38-3.35,6.42-5.19c1.09-0.98,1.83-2.34,2.75-3.51
		c0.66-0.83,1.29-1.69,2.07-2.4c2.2-2,4.5-3.87,6.68-5.89c1.12-1.04,2.05-2.27,3.07-3.42c0.2,0.16,0.41,0.33,0.61,0.49
		c-3.84,5.09-7.68,10.18-11.73,15.55c4.28-0.73,8.12-1.62,12-1.99c3.41-0.33,5.98-1.34,7.97-4.39c1.55-2.38,3.96-4.21,7.38-4.86
		c-2.27,2.73-4.27,5.14-6.26,7.54C444.12,467.59,468.41,466.14,493.1,464.66z M621.34,506.52c8.76,0.41,17.27,0.81,25.91,1.21
		c0.13-1.12,0.26-1.95,0.32-2.8c0.75-10.66,0.14-21.25-1.39-31.81c-0.72-4.98-2.74-9.44-5.78-13.42
		c-5.56-7.27-12.92-12.19-21.15-15.93c-0.15-0.07-0.37,0.02-0.58,0.04c0,0.28-0.04,0.5,0.01,0.69c2.87,12.58,4,25.34,3.81,38.22
		c-0.1,7.1-1.91,14.1-1.15,21.25C621.41,504.75,621.34,505.52,621.34,506.52z M506.91,311.25c-0.36-1.3-0.56-2.11-0.81-2.91
		c-1.61-5.1-3.6-10.11-4.77-15.31c-2.22-9.84-6.75-18.18-14.33-24.86c-1.17-1.03-2.12-2.31-3.19-3.46c-0.32-0.34-0.7-0.62-1.24-1.09
		c-0.3,1.33-0.44,2.45-0.81,3.5c-0.62,1.74-0.91,4.03-2.18,5c-2.63,2.01-2.51,4.67-2.87,7.34c-0.09,0.63-0.21,1.27-0.36,1.89
		c-2.14,9.02-6.65,16.95-11.44,24.75c-1.63,2.65-3.37,5.23-5.21,8.07c4.16-2.59,9.44-8.9,11.6-13.73c2.37-5.3,2.37-5.29,7.58-2.76
		C488.05,302.12,497.22,306.56,506.91,311.25z M312.15,492.12c-0.02-0.27-0.05-0.54-0.07-0.81c-32.66-4.27-65.32-8.55-98.33-12.87
		c1.6,5.06,3.17,9.71,4.5,14.42c0.55,1.95,1.42,2.5,3.44,2.42c27.03-1.11,54.06-2.14,81.09-3.15
		C305.89,492.02,309.02,492.12,312.15,492.12z M218.5,506.3c0.62,0,1.39,0.04,2.15-0.01c7.27-0.5,14.53-1.01,21.8-1.52
		c10.9-0.75,21.8-1.58,32.71-2.18c2.15-0.12,3.69-0.68,5.21-2.16c0.81-0.78,2.26-1.2,3.44-1.25c11.84-0.54,23.69-0.97,35.54-1.42
		c4.69-0.18,9.39-0.32,14.16-0.49c0-1.12,0-2.07,0-3.45c-37.97,1.46-75.76,2.91-113.36,4.36
		C219.56,501.05,219.05,503.61,218.5,506.3z M371.42,308.01c0.18,0.17,0.35,0.35,0.53,0.52c0.68-0.89,1.48-1.73,2.03-2.7
		c1.2-2.09,2.19-4.31,3.42-6.38c1.12-1.87,2.22-3.86,3.75-5.37c2.34-2.29,5.11-1.42,6.05,1.71c0.41,1.35,0.61,2.78,0.74,4.19
		c0.34,3.63,1.99,5.33,5.59,5.16c2.72-0.13,4.6,0.86,6.12,3.09c1.6,2.34,3.67,4.13,7.14,3.98c-0.64-0.74-1.07-1.27-1.53-1.77
		c-3.84-4.14-6.79-8.78-8.42-14.25c-1.89-6.35-3.88-12.68-5.92-18.99c-0.81-2.51-1.89-4.93-2.77-7.2c-2.19,3.07-4.29,5.84-6.21,8.73
		c-2.04,3.07-4.62,6.02-5.72,9.43C374.16,294.63,372.98,301.38,371.42,308.01z M425.51,198.33c1.59,3.43,3.28,6.65,4.59,10.01
		c1.16,3,3.37,4.24,6.26,4.21c3.83-0.04,7.68-0.26,11.48-0.76c4.66-0.61,6.08-2.32,6.5-6.95c0.26-2.84,0.48-5.67,0.75-8.51
		c0.13-1.37-0.44-2.19-1.8-2.42c-1.69-0.28-3.37-0.65-5.06-0.79C440.17,192.44,432.71,194.38,425.51,198.33z M358.23,444.24
		c0.33-0.06,0.67-0.12,1-0.18c1.3,2.64,2.14,5.41,2.21,8.42c0.09,4.22,2.51,6.93,6.67,7.59c0.84,0.13,1.7,0.27,2.51,0.52
		c2.52,0.77,3.01,0.55,3.63-2.03c0.2-0.82,0.2-1.69,0.23-2.54c0.11-3.56,0.1-7.13,0.3-10.69c0.36-6.35-3.19-9.89-9.41-8.78
		c-5.57,0.99-11.06,2.46-16.91,3.79c3.49,3.73,6.91,7.38,10.54,11.25C358.71,448.87,358.47,446.56,358.23,444.24z M360.03,456.9
		c-14.46-15.43-28.91-30.86-43.42-46.35c-1.42,0.94-2.64,1.74-4,2.64c0.84,0.88,1.46,1.55,2.1,2.21
		c12.11,12.62,24.31,25.16,36.26,37.93C353.52,456.05,356.38,456.96,360.03,456.9z M479.06,206.31c-1.33-6.3-2.57-12.18-3.92-18.58
		c-3.48,1.49-6.37,2.83-9.33,3.98c-2.2,0.85-2.32,2.39-1.45,4.09c1.64,3.17,3.4,6.27,5.28,9.3c0.46,0.73,1.56,1.44,2.4,1.48
		C474.35,206.68,476.67,206.42,479.06,206.31z M482.25,205.31c1.14-0.23,1.75-0.42,2.38-0.47c3.36-0.27,4.95-2.26,5.1-5.43
		c0.15-3.33,0.16-6.68,0.09-10.02c-0.01-0.5-0.73-1.37-1.2-1.42c-3.33-0.39-6.67-0.61-10.16-0.89
		C479.79,193.51,481,199.32,482.25,205.31z M379.02,497.53c0.6-3.94,1.17-7.68,1.76-11.59c-3.04,1.38-6.25,2.56-9.13,4.28
		c-1.07,0.64-1.87,2.55-1.9,3.9c-0.03,1.57,1.23,2.79,3.1,2.91C374.97,497.17,377.07,497.37,379.02,497.53z M366.63,495.08
		c0-1.05,0-2.15,0-3.25c-4.9,1-9.67,2.08-13.81,4.96C357.39,496.3,362.21,498.35,366.63,495.08z M371.32,473.32
		c0.12-0.09,0.24-0.17,0.36-0.26c-0.55-1.1-1.1-2.2-1.74-3.49c-0.83,0.72-1.43,1.23-2.26,1.95
		C369.1,472.23,370.21,472.77,371.32,473.32z M371.36,464.3c-0.26,0.14-0.51,0.27-0.77,0.41c0.68,1.26,1.36,2.51,2.04,3.77
		c0.25-0.13,0.49-0.26,0.74-0.39C372.7,466.83,372.03,465.57,371.36,464.3z"/>
	<path d="M590.03,449.14c2.7,0.32,4.98,0.63,6.94,1.99c3.96,2.72,7.54,5.82,10.26,9.88c1.49,2.22,3.33,4.21,5.01,6.31
		c0.26-0.08,0.52-0.17,0.79-0.25c-0.23-1.67-0.23-3.4-0.72-4.99c-1.72-5.54-5.53-9.74-9.27-13.97c-1.07-1.21-2.16-2.4-2.97-3.96
		c0.37,0.1,0.82,0.11,1.11,0.32c6.1,4.44,11.33,9.65,13.66,17.05c0.62,1.95,0.7,4.24,0.38,6.28c-0.43,2.8-2.48,3.37-4.39,1.28
		c-1.96-2.15-3.69-4.53-5.33-6.94c-3.55-5.25-7.69-9.73-14.04-11.54c-0.33-0.1-0.65-0.29-0.94-0.47
		C590.42,450.05,590.4,449.88,590.03,449.14z"/>
	<path d="M375.06,225.49c-2.81-1.14-2.86,2.26-4.48,3.44c-1.34-2.29,0.54-3.53,1.89-5.48c-1.24-0.41-2.41-1.24-3.25-0.99
		c-1.58,0.48-2.77,1.99-2.1,3.68c1.26,3.14,2.74,6.23,4.47,9.14c1.03,1.74,2.7,3.11,4.08,4.64c0.59,0.65,1.16,1.32,1.74,1.98
		c-0.13,0.17-0.26,0.34-0.39,0.51c-0.96-0.51-1.97-0.93-2.86-1.55c-4.93-3.45-8.08-8.17-9.64-13.93c-0.8-2.94,0.44-5.17,2.89-6.76
		c1.78-1.15,3.62-1.28,5.35,0.13c1.43,1.17,3.06,1.84,4.72,2.61c1.72,0.8,2.89,2.95,4.06,4.67c0.66,0.97,0.94,2.24,1.19,3.41
		c0.34,1.62,0.74,2.9,2.68,3.36c1.6,0.38,2.66,3.23,1.93,4.66c-0.97,1.91-2.65,1.45-4.09,0.81c-1.47-0.64-2.8-1.6-4.19-2.42
		c0.07-0.19,0.14-0.37,0.21-0.56c1.78,0.55,3.57,1.1,5.35,1.64c0.11-0.21,0.23-0.42,0.34-0.62c-0.41-0.33-0.77-0.86-1.22-0.96
		c-2.45-0.53-3.23-2.32-3.66-4.47c-0.39-1.96-0.83-3.92-1.33-6.23c-2.48,1.37-2.63,3.12-2.86,5.25c0.97-0.79,1.65-1.35,2.38-1.95
		c0.76,1.89-0.44,4.83-1.99,5.3c-1.27,0.39-2.65-0.64-2.53-2.38C373.93,230.17,374.59,227.93,375.06,225.49z"/>
</g>
</svg>
